<svg xmlns="http://www.w3.org/2000/svg" viewBox="0 0 48 48" width="24px" height="24px">
  <path fill="#EA4335" d="M24 9.5c3.94 0 6.6 1.7 8.12 3.13l6-6C34.73 3.38 29.73 1 24 1 14.64 1 6.69 6.73 3.16 14.26l7.02 5.45C11.66 13.82 17.26 9.5 24 9.5z"/>
  <path fill="#34A853" d="M46.15 24.5c0-1.57-.14-3.08-.41-4.55H24v9.1h12.53c-.54 2.94-2.16 5.43-4.61 7.11l7.06 5.47C43.64 37.27 46.15 31.29 46.15 24.5z"/>
  <path fill="#FBBC05" d="M10.18 28.71A14.55 14.55 0 0 1 9.5 24c0-1.64.28-3.23.68-4.71l-7.02-5.45C1.84 16.64 1 20.22 1 24c0 3.78.84 7.36 2.16 10.16l7.02-5.45z"/>
  <path fill="#4285F4" d="M24 47c6.48 0 11.92-2.13 15.89-5.83l-7.06-5.47C30.59 37.49 27.45 38.5 24 38.5c-6.74 0-12.34-4.32-14.82-10.29l-7.02 5.45C6.69 41.27 14.64 47 24 47z"/>
</svg>
